<svg width="12" height="12" viewBox="0 0 14 14" fill="none" xmlns="http://www.w3.org/2000/svg">
  <path
    d="M13.2301 0.129905V11.8701H11.2304V4.28687C11.2304 3.98376 11.2473 3.65629 11.281 3.30447L7.5938 9.97023C7.41943 10.2896 7.15224 10.4493 6.79224 10.4493H6.47161C6.11161 10.4493 5.84442 10.2896 5.67004 9.97023L1.94064 3.28011C1.95751 3.45873 1.97158 3.63464 1.98283 3.80785C1.99408 3.98106 1.9997 4.14073 1.9997 4.28687V11.8701H0V0.129905H1.71282C1.81408 0.129905 1.90126 0.132611 1.97439 0.138024C2.04751 0.143436 2.1122 0.156968 2.16845 0.178619C2.23033 0.20027 2.28377 0.235453 2.32877 0.284168C2.37939 0.332882 2.4272 0.397834 2.47221 0.479025L6.12567 6.99865C6.22129 7.17185 6.30848 7.35047 6.38723 7.53451C6.47161 7.71854 6.55317 7.90798 6.63192 8.10284C6.71067 7.90257 6.79224 7.71042 6.87661 7.52639C6.96099 7.33694 7.05099 7.15562 7.14661 6.98241L10.7495 0.479025C10.7945 0.397834 10.8423 0.332882 10.8929 0.284168C10.9435 0.235453 10.997 0.20027 11.0532 0.178619C11.1151 0.156968 11.1826 0.143436 11.2557 0.138024C11.3288 0.132611 11.416 0.129905 11.5173 0.129905H13.2301Z"
    fill="black" />
</svg>  